<?xml version="1.0" encoding="UTF-8" standalone="no" ?>
<!DOCTYPE svg PUBLIC "-//W3C//DTD SVG 1.1//EN" "http://www.w3.org/Graphics/SVG/1.1/DTD/svg11.dtd">
<svg xmlns="http://www.w3.org/2000/svg" xmlns:xlink="http://www.w3.org/1999/xlink" version="1.1" width="1080" height="1080" viewBox="0 0 1080 1080" xml:space="preserve">
<desc>Created with Fabric.js 5.2.4</desc>
<defs>
</defs>
<rect x="0" y="0" width="100%" height="100%" fill="transparent"></rect>
<g transform="matrix(1 0 0 1 540 540)" id="7a6dda67-1e82-428f-bc17-cd02a9fade05"  >
<rect style="stroke: none; stroke-width: 1; stroke-dasharray: none; stroke-linecap: butt; stroke-dashoffset: 0; stroke-linejoin: miter; stroke-miterlimit: 4; fill: rgb(15,15,17); fill-rule: nonzero; opacity: 1;" vector-effect="non-scaling-stroke"  x="-540" y="-540" rx="0" ry="0" width="1080" height="1080" />
</g>
<g transform="matrix(1 0 0 1 540 540)" id="144caaaa-e7ba-4a19-b410-b4d9836e1891"  >
</g>
<g transform="matrix(1 0 0 1 540 540)" id="71a4ea11-cbdd-4568-92e7-7116d983e5a4"  >
<path style="stroke: rgb(0,0,0); stroke-width: 0; stroke-dasharray: none; stroke-linecap: butt; stroke-dashoffset: 0; stroke-linejoin: miter; stroke-miterlimit: 4; fill: rgb(254,255,255); fill-rule: nonzero; opacity: 1;" vector-effect="non-scaling-stroke"  transform=" translate(-150, -191.78)" d="M 240.1 159.9 C 255.7 179.5 265.1 204.4 265.1 231.4 C 265.1 258.4 255.50000000000003 284 239.40000000000003 303.8 L 238.00000000000003 305.5 L 237.60000000000002 303.3 C 237.3 301.5 236.90000000000003 299.6 236.50000000000003 297.7 C 228.50000000000003 262.4 202.3 232.1 159.10000000000002 207.5 C 130.00000000000003 191 113.30000000000003 171.1 108.90000000000002 148.5 C 106.10000000000002 133.9 108.20000000000002 119.2 112.20000000000002 106.6 C 116.30000000000001 94 122.30000000000001 83.5 127.40000000000002 77.19999999999999 L 144.20000000000002 56.69999999999999 C 147.10000000000002 53.09999999999999 152.70000000000002 53.09999999999999 155.60000000000002 56.69999999999999 L 240.1 159.9 L 240.1 159.9 z M 266.6 139.4 L 154.2 2 C 152.1 -0.6000000000000001 148 -0.6000000000000001 145.89999999999998 2 L 33.4 139.4 L 33 139.9 C 12.4 165.6 0 198.2 0 233.7 C 0 316.4 67.2 383.5 150 383.5 C 232.8 383.5 300 316.4 300 233.7 C 300 198.2 287.6 165.6 266.9 139.89999999999998 L 266.6 139.4 L 266.6 139.4 z M 60.3 159.5 L 70.3 147.2 L 70.6 149.5 C 70.8 151.3 71.1 153.1 71.5 154.9 C 78 189 101.3 217.5 140.1 239.5 C 173.89999999999998 258.7 193.5 280.8 199.2 305.1 C 201.6 315.20000000000005 202 325.20000000000005 201 333.90000000000003 L 200.9 334.40000000000003 L 200.4 334.6 C 185.20000000000002 342 168 346.20000000000005 149.9 346.20000000000005 C 86.4 346.20000000000005 34.900000000000006 294.80000000000007 34.900000000000006 231.40000000000003 C 34.9 204.2 44.4 179.1 60.3 159.5 L 60.3 159.5 z" stroke-linecap="round" />
</g>
<g transform="matrix(NaN NaN NaN NaN 0 0)"  >
<g style=""   >
</g>
</g>
<g transform="matrix(NaN NaN NaN NaN 0 0)"  >
<g style=""   >
</g>
</g>
</svg>